<?xml version="1.0" standalone="no"?>
<!DOCTYPE svg PUBLIC "-//W3C//DTD SVG 20010904//EN"
 "http://www.w3.org/TR/2001/REC-SVG-20010904/DTD/svg10.dtd">
<svg version="1.0" xmlns="http://www.w3.org/2000/svg"
 width="2362.000000pt" height="2362.000000pt" viewBox="0 0 2362.000000 2362.000000"
 preserveAspectRatio="xMidYMid meet">
<metadata>
Created by potrace 1.14, written by Peter Selinger 2001-2017
</metadata>
<g transform="translate(0.000000,2362.000000) scale(0.100000,-0.100000)"
fill="#000000" stroke="none">
<path d="M7631 16776 l-4074 -4075 1084 -1083 c596 -597 1573 -1573 2171
-2171 l1086 -1087 4077 4076 c2241 2242 4074 4078 4073 4080 -16 20 -4333
4334 -4337 4334 -3 0 -1839 -1834 -4080 -4074z"/>
<path d="M14730 14409 c-938 -939 -1706 -1710 -1707 -1711 -1 -2 515 -2 1145
-1 631 1 2170 3 3419 4 2151 3 2272 4 2257 20 -53 58 -3398 3399 -3403 3398
-3 -1 -773 -770 -1711 -1710z"/>
<path d="M10391 10069 l-2101 -2101 1711 -1710 1711 -1711 3781 3781 3781
3781 -3389 -2 -3390 -2 1 33 c1 17 1 32 -1 32 -2 0 -948 -945 -2104 -2101z"/>
</g>
</svg>
